<svg xmlns="http://www.w3.org/2000/svg" viewBox="0 0 512 512" style="height: 512px; width: 512px;"><path d="M0 0h512v512H0z" fill="url(#pattern)" fill-opacity="1"></path><g class="" transform="translate(0,0)" style=""><path d="M289.7 18.13c-7.4.12-14.5 3.24-20.1 9.24l-98.3 104.83c-10.5 11.2-10.5 29.2 0 40.4l98.3 104.8c11.2 11.9 29.5 11.9 40.7 0 11.2-11.9 11.2-31.3 0-43.2l-48.3-51.6H428c15.9 0 28.8-12.9 28.8-28.8 0-15.9-12.9-28.8-28.8-28.8H262l48.3-51.63c11.2-11.94 11.2-31.27 0-43.21-5.6-5.97-12.7-9.15-20.1-9.03h-.5zM112.2 18.13c-15.9 0-28.8 12.88-28.8 28.77v418.2c0 15.9 12.9 28.8 28.8 28.8 15.9 0 28.8-12.9 28.8-28.8V46.9c0-15.89-12.9-28.77-28.8-28.77zm177.5 242.47c-7.4.1-14.5 3.2-20.1 9.2l-98.3 104.8c-10.5 11.2-10.5 29.2 0 40.4l98.3 104.9c11.2 11.9 29.5 11.9 40.7 0 11.2-12 11.2-31.3 0-43.3L262 424.9H428c15.9 0 28.8-12.8 28.8-28.7 0-15.9-12.9-28.8-28.8-28.8H262l48.3-51.6c11.2-11.9 11.2-31.3 0-43.2-5.6-6-12.7-9.1-20.1-9h-.5z" fill="#fff" fill-opacity="1"></path></g></svg>